# xmcd CD database file
#
# Track frame offsets:
#	150
#	18238
#	32307
#	47752
#	58655
#	75536
#	91113
#	104413
#	118849
#	132531
#	144777
#	159498
#	173361
#	184649
#	198856
#	212390
#
# Disc length: 3046 seconds
#
# Revision: 0
# Processed by: cddbd v1.4PL0 Copyright (c) Steve Scherf et al.
# Submitted via: CDex 1.50
#
DISCID=c00be410
DTITLE=Ray Starr - Introducing Ray Starr
DYEAR=2002
DGENRE=Country
TTITLE0=I Thought I'd Never Love Again
TTITLE1=I Found the Girl That I'm Looking for
TTITLE2=Right Back to Lovin' Again
TTITLE3=If You Don't Love Me - Leave Me If you Want To
TTITLE4=Can't Get Enough of You
TTITLE5=Tribute To Dad
TTITLE6=The Starlight Polka
TTITLE7=You Give Me That Special Feeling
TTITLE8=If You Can Say You're Sorry
TTITLE9=I don't Like Those Games
TTITLE10=I Just WAnt You To Stay
TTITLE11=You're The One Who Has To Change Things
TTITLE12=Can I Kisws and Hold You One More Time
TTITLE13=Just To Hear You Say that You Love Me
TTITLE14=To Bad If You're Gonna Be Mad
TTITLE15=I need Somebody's Lovin'
EXTD=YEAR: 2002
EXTT0=
EXTT1=
EXTT2=
EXTT3=
EXTT4=
EXTT5=
EXTT6=
EXTT7=
EXTT8=
EXTT9=
EXTT10=
EXTT11=
EXTT12=
EXTT13=
EXTT14=
EXTT15=
PLAYORDER=
